<svg xmlns="http://www.w3.org/2000/svg" width="379.704" height="357.307"><defs><style>@font-face{font-family:&quot;Virgil&quot;;src:url(https://excalidraw.com/Virgil.woff2)}@font-face{font-family:&quot;Cascadia&quot;;src:url(https://excalidraw.com/Cascadia.woff2)}</style></defs><path fill="#fff" d="M0 0h379.704v357.307H0z"/><path fill="none" stroke="#000" stroke-linecap="round" stroke-width="2" d="M147.391 39.45c-.11 42.08-.51 212.15-.84 254.3m-.35-252.05c-.26 42.22.01 208.27-.3 250.19"/><path fill="none" stroke="#000" stroke-linecap="round" stroke-width="2" d="M77.208 209.915c40.82-.2 204.14.68 244.98.61m-246.01 1.65c40.64.52 204.43.18 245.37-.14"/><text dominant-baseline="text-before-edge" font-family="Virgil, Segoe UI Emoji" font-size="20" style="white-space:pre" transform="translate(326.704 198.122)">Real</text><text dominant-baseline="text-before-edge" font-family="Virgil, Segoe UI Emoji" font-size="20" style="white-space:pre" transform="translate(105.802 10)">Imaginary</text><path fill="none" stroke="#c92a2a" stroke-linecap="round" stroke-width="2" d="M148.25 212.245c15.56-16.13 77.6-80.25 93.19-96.27m-94.74 95.37c15.49-16.07 78.38-78.63 94.21-94.34m1.13 94.153c.13-15.68.48-79.15.37-94.98m-1.24 94.19c-.03-15.44.78-77.15.65-92.62"/><path fill="none" stroke="#000" stroke-linecap="round" stroke-width="4" d="M243.633 114.758c.22.06.15.38.26.81.11.44.52 1.26.41 1.78-.12.51-.59 1.09-1.09 1.33-.5.25-1.59.18-1.92.12-.32-.05.11-.15-.02-.45-.12-.29-.65-.94-.71-1.31-.06-.37.24-.7.38-.92.13-.22-.12-.28.43-.42.55-.14 2.64-.42 2.89-.41.25.02-1.21.61-1.38.49m-.14 0c.39-.02.06-1.61.26-1.61.21.01.66 1.37.98 1.64.32.28 1.15-.27.93.02-.22.3-1.97 1.43-2.26 1.77-.29.33.76.3.52.25-.24-.05-1.51-.5-1.94-.54-.43-.03-.38.44-.66.33-.28-.11-1.32-.38-1.02-.99.31-.6 2.61-2.41 2.84-2.64.23-.24-1.42.95-1.47 1.24"/><text dominant-baseline="text-before-edge" font-family="Virgil, Segoe UI Emoji" font-size="20" style="white-space:pre" transform="translate(237.379 89.75)">a+bi</text><text dominant-baseline="text-before-edge" font-family="Virgil, Segoe UI Emoji" font-size="20" style="white-space:pre" transform="translate(189.368 181.941)">θ</text><text dominant-baseline="text-before-edge" font-family="Virgil, Segoe UI Emoji" font-size="20" style="white-space:pre" transform="translate(186.32 136.246)">r</text><path fill="none" stroke="#000" stroke-linecap="round" stroke-width="2" d="M182.93 208.883c-.14-2.44 1.15-10.08-.35-14.44-1.5-4.36-7.27-9.81-8.68-11.72m10.6 25.51c-.13-2.41-.42-8.8-2.27-12.81-1.86-4.01-7.62-9.42-8.87-11.27"/><path fill="none" stroke="#c92a2a" stroke-linecap="round" d="M127.2 79.523c13.6-3.65 30.77-1.41 44.98 1.55 14.22 2.96 27.91 8.82 40.31 16.2 12.41 7.39 24.91 17.13 34.13 28.1 9.22 10.98 16.28 24.15 21.17 37.76 4.89 13.62 7.7 29.16 8.19 43.95.5 14.78-1.39 30.84-5.21 44.77-3.83 13.92-9.53 26.99-17.75 38.77-8.22 11.79-19.73 23.51-31.58 31.92-11.85 8.41-25.57 14.41-39.52 18.53-13.94 4.12-29.63 6.73-44.13 6.21-14.51-.51-29.56-3.86-42.9-9.28s-26.1-13.84-37.16-23.25c-11.06-9.41-21.81-20.67-29.2-33.19-7.4-12.52-12.32-27.47-15.16-41.94-2.84-14.47-3.6-30.57-1.9-44.86 1.71-14.29 5.77-27.8 12.13-40.86 6.36-13.07 15.75-26.94 26.03-37.51 10.28-10.57 20.49-19.48 35.66-25.9 15.17-6.43 44.02-11.06 55.36-12.67 11.33-1.62 12.61.79 12.64 3m-64.19 8.46c11.94-7.33 28.21-8.8 42.46-10.25 14.24-1.44 29-1.76 43 1.57 14.01 3.34 28.86 10.35 41.02 18.43 12.17 8.08 22.95 18.74 31.95 30.06 9.01 11.32 16.92 24.15 22.09 37.85 5.17 13.71 8.84 29.81 8.95 44.39.11 14.59-3.32 29.12-8.3 43.12-4.99 14-12.91 29.16-21.61 40.88-8.69 11.72-18.6 21.72-30.56 29.44-11.97 7.73-27.09 13.23-41.22 16.9-14.14 3.67-29.11 5.76-43.6 5.12-14.48-.65-30.06-3.15-43.32-8.97-13.26-5.82-25.57-16.01-36.23-25.94-10.65-9.93-20.87-21.07-27.72-33.65-6.84-12.58-10.94-27.4-13.34-41.82-2.39-14.41-3.26-29.97-1.05-44.68 2.22-14.72 7.64-30.76 14.35-43.62 6.72-12.87 15.4-23.71 25.93-33.58 10.54-9.87 30.78-22.09 37.28-25.65 6.5-3.56.83 2.4 1.72 4.3"/></svg>