<svg xmlns="http://www.w3.org/2000/svg" xmlns:xlink="http://www.w3.org/1999/xlink" width="2154.24" height="1234.56" viewBox="0 0 1615.68 925.92"><defs><style>*{stroke-linejoin:round;stroke-linecap:butt}</style></defs><g id="figure_1"><path id="patch_1" d="M0 925.92h1615.68V0H0z" style="fill:#fff"/><g id="axes_1"><path id="patch_2" d="M201.96 320.804h1252.152V111.11H201.96z" style="fill:#fff"/><g id="matplotlib.axis_1"><g id="xtick_1"><g id="line2d_1"><defs><path id="mcbe12354a2" d="M0 0v3.5" style="stroke:#000;stroke-width:.8"/></defs><use xlink:href="#mcbe12354a2" x="220.68" y="320.804" style="stroke:#000;stroke-width:.8"/></g><g id="text_1" transform="matrix(.1 0 0 -.1 191.622 335.402)"><defs><path id="DejaVuSans-32" d="M1228 531h2203V0H469v531q359 372 979 998 621 627 780 809 303 340 423 576 121 236 121 464 0 372-261 606-261 235-680 235-297 0-627-103-329-103-704-313v638q381 153 712 231 332 78 607 78 725 0 1156-363 431-362 431-968 0-288-108-546-107-257-392-607-78-91-497-524-418-433-1181-1211z" transform="scale(.01563)"/><path id="DejaVuSans-30" d="M2034 4250q-487 0-733-480-245-479-245-1442 0-959 245-1439 246-480 733-480 491 0 736 480 246 480 246 1439 0 963-246 1442-245 480-736 480zm0 500q785 0 1199-621 414-620 414-1801 0-1178-414-1799Q2819-91 2034-91q-784 0-1198 620-414 621-414 1799 0 1181 414 1801 414 621 1198 621z" transform="scale(.01563)"/><path id="DejaVuSans-33" d="M2597 2516q453-97 707-404 255-306 255-756 0-690-475-1069Q2609-91 1734-91q-293 0-604 58T488 141v609q262-153 574-231 313-78 654-78 593 0 904 234t311 681q0 413-289 645-289 233-804 233h-544v519h569q465 0 712 186t247 536q0 359-255 551-254 193-729 193-260 0-557-57-297-56-653-174v562q360 100 674 150t592 50q719 0 1137-327 419-326 419-882 0-388-222-655t-631-370z" transform="scale(.01563)"/><path id="DejaVuSans-2d" d="M313 2009h1684v-512H313v512z" transform="scale(.01563)"/><path id="DejaVuSans-31" d="M794 531h1031v3560L703 3866v575l1116 225h631V531h1031V0H794v531z" transform="scale(.01563)"/></defs><use xlink:href="#DejaVuSans-32"/><use xlink:href="#DejaVuSans-30" x="63.623"/><use xlink:href="#DejaVuSans-32" x="127.246"/><use xlink:href="#DejaVuSans-33" x="190.869"/><use xlink:href="#DejaVuSans-2d" x="254.492"/><use xlink:href="#DejaVuSans-30" x="290.576"/><use xlink:href="#DejaVuSans-31" x="354.199"/><use xlink:href="#DejaVuSans-2d" x="417.822"/><use xlink:href="#DejaVuSans-32" x="453.906"/><use xlink:href="#DejaVuSans-33" x="517.529"/></g></g><g id="xtick_2"><use xlink:href="#mcbe12354a2" id="line2d_2" x="334.988" y="320.804" style="stroke:#000;stroke-width:.8"/><g id="text_2" transform="matrix(.1 0 0 -.1 305.93 335.402)"><defs><path id="DejaVuSans-34" d="M2419 4116 825 1625h1594v2491zm-166 550h794V1625h666v-525h-666V0h-628v1100H313v609l1940 2957z" transform="scale(.01563)"/></defs><use xlink:href="#DejaVuSans-32"/><use xlink:href="#DejaVuSans-30" x="63.623"/><use xlink:href="#DejaVuSans-32" x="127.246"/><use xlink:href="#DejaVuSans-33" x="190.869"/><use xlink:href="#DejaVuSans-2d" x="254.492"/><use xlink:href="#DejaVuSans-30" x="290.576"/><use xlink:href="#DejaVuSans-31" x="354.199"/><use xlink:href="#DejaVuSans-2d" x="417.822"/><use xlink:href="#DejaVuSans-32" x="453.906"/><use xlink:href="#DejaVuSans-34" x="517.529"/></g></g><g id="xtick_3"><use xlink:href="#mcbe12354a2" id="line2d_3" x="449.296" y="320.804" style="stroke:#000;stroke-width:.8"/><g id="text_3" transform="matrix(.1 0 0 -.1 420.239 335.402)"><defs><path id="DejaVuSans-35" d="M691 4666h2478v-532H1269V2991q137 47 274 70 138 23 276 23 781 0 1237-428 457-428 457-1159 0-753-469-1171Q2575-91 1722-91q-294 0-599 50Q819 9 494 109v635q281-153 581-228t634-75q541 0 856 284 316 284 316 772 0 487-316 771-315 285-856 285-253 0-505-56-251-56-513-175v2344z" transform="scale(.01563)"/></defs><use xlink:href="#DejaVuSans-32"/><use xlink:href="#DejaVuSans-30" x="63.623"/><use xlink:href="#DejaVuSans-32" x="127.246"/><use xlink:href="#DejaVuSans-33" x="190.869"/><use xlink:href="#DejaVuSans-2d" x="254.492"/><use xlink:href="#DejaVuSans-30" x="290.576"/><use xlink:href="#DejaVuSans-31" x="354.199"/><use xlink:href="#DejaVuSans-2d" x="417.822"/><use xlink:href="#DejaVuSans-32" x="453.906"/><use xlink:href="#DejaVuSans-35" x="517.529"/></g></g><g id="xtick_4"><use xlink:href="#mcbe12354a2" id="line2d_4" x="563.605" y="320.804" style="stroke:#000;stroke-width:.8"/><g id="text_4" transform="matrix(.1 0 0 -.1 534.547 335.402)"><defs><path id="DejaVuSans-36" d="M2113 2584q-425 0-674-291-248-290-248-796 0-503 248-796 249-292 674-292t673 292q248 293 248 796 0 506-248 796-248 291-673 291zm1253 1979v-575q-238 112-480 171-242 60-480 60-625 0-955-422-329-422-376-1275 184 272 462 417 279 145 613 145 703 0 1111-427 408-426 408-1160 0-719-425-1154Q2819-91 2113-91q-810 0-1238 620-428 621-428 1799 0 1106 525 1764t1409 658q238 0 480-47t505-140z" transform="scale(.01563)"/></defs><use xlink:href="#DejaVuSans-32"/><use xlink:href="#DejaVuSans-30" x="63.623"/><use xlink:href="#DejaVuSans-32" x="127.246"/><use xlink:href="#DejaVuSans-33" x="190.869"/><use xlink:href="#DejaVuSans-2d" x="254.492"/><use xlink:href="#DejaVuSans-30" x="290.576"/><use xlink:href="#DejaVuSans-31" x="354.199"/><use xlink:href="#DejaVuSans-2d" x="417.822"/><use xlink:href="#DejaVuSans-32" x="453.906"/><use xlink:href="#DejaVuSans-36" x="517.529"/></g></g><g id="xtick_5"><use xlink:href="#mcbe12354a2" id="line2d_5" x="677.913" y="320.804" style="stroke:#000;stroke-width:.8"/><g id="text_5" transform="matrix(.1 0 0 -.1 648.855 335.402)"><defs><path id="DejaVuSans-37" d="M525 4666h3000v-269L1831 0h-659l1594 4134H525v532z" transform="scale(.01563)"/></defs><use xlink:href="#DejaVuSans-32"/><use xlink:href="#DejaVuSans-30" x="63.623"/><use xlink:href="#DejaVuSans-32" x="127.246"/><use xlink:href="#DejaVuSans-33" x="190.869"/><use xlink:href="#DejaVuSans-2d" x="254.492"/><use xlink:href="#DejaVuSans-30" x="290.576"/><use xlink:href="#DejaVuSans-31" x="354.199"/><use xlink:href="#DejaVuSans-2d" x="417.822"/><use xlink:href="#DejaVuSans-32" x="453.906"/><use xlink:href="#DejaVuSans-37" x="517.529"/></g></g><g id="xtick_6"><use xlink:href="#mcbe12354a2" id="line2d_6" x="792.221" y="320.804" style="stroke:#000;stroke-width:.8"/><g id="text_6" transform="matrix(.1 0 0 -.1 763.163 335.402)"><defs><path id="DejaVuSans-38" d="M2034 2216q-450 0-708-241-257-241-257-662 0-422 257-663 258-241 708-241t709 242q260 243 260 662 0 421-258 662-257 241-711 241zm-631 268q-406 100-633 378-226 279-226 679 0 559 398 884 399 325 1092 325 697 0 1094-325t397-884q0-400-227-679-226-278-629-378 456-106 710-416 255-309 255-755 0-679-414-1042Q2806-91 2034-91q-771 0-1186 362-414 363-414 1042 0 446 256 755 257 310 713 416zm-231 997q0-362 226-565 227-203 636-203 407 0 636 203 230 203 230 565 0 363-230 566-229 203-636 203-409 0-636-203-226-203-226-566z" transform="scale(.01563)"/></defs><use xlink:href="#DejaVuSans-32"/><use xlink:href="#DejaVuSans-30" x="63.623"/><use xlink:href="#DejaVuSans-32" x="127.246"/><use xlink:href="#DejaVuSans-33" x="190.869"/><use xlink:href="#DejaVuSans-2d" x="254.492"/><use xlink:href="#DejaVuSans-30" x="290.576"/><use xlink:href="#DejaVuSans-31" x="354.199"/><use xlink:href="#DejaVuSans-2d" x="417.822"/><use xlink:href="#DejaVuSans-32" x="453.906"/><use xlink:href="#DejaVuSans-38" x="517.529"/></g></g><g id="xtick_7"><use xlink:href="#mcbe12354a2" id="line2d_7" x="906.53" y="320.804" style="stroke:#000;stroke-width:.8"/><g id="text_7" transform="matrix(.1 0 0 -.1 877.472 335.402)"><defs><path id="DejaVuSans-39" d="M703 97v575q238-113 481-172 244-59 479-59 625 0 954 420 330 420 377 1277-181-269-460-413-278-144-615-144-700 0-1108 423-408 424-408 1159 0 718 425 1152 425 435 1131 435 810 0 1236-621 427-620 427-1801 0-1103-524-1761Q2575-91 1691-91q-238 0-482 47Q966 3 703 97zm1256 1978q425 0 673 290 249 291 249 798 0 503-249 795-248 292-673 292t-673-292q-248-292-248-795 0-507 248-798 248-290 673-290z" transform="scale(.01563)"/></defs><use xlink:href="#DejaVuSans-32"/><use xlink:href="#DejaVuSans-30" x="63.623"/><use xlink:href="#DejaVuSans-32" x="127.246"/><use xlink:href="#DejaVuSans-33" x="190.869"/><use xlink:href="#DejaVuSans-2d" x="254.492"/><use xlink:href="#DejaVuSans-30" x="290.576"/><use xlink:href="#DejaVuSans-31" x="354.199"/><use xlink:href="#DejaVuSans-2d" x="417.822"/><use xlink:href="#DejaVuSans-32" x="453.906"/><use xlink:href="#DejaVuSans-39" x="517.529"/></g></g><g id="xtick_8"><use xlink:href="#mcbe12354a2" id="line2d_8" x="1020.838" y="320.804" style="stroke:#000;stroke-width:.8"/><g id="text_8" transform="matrix(.1 0 0 -.1 991.78 335.402)"><use xlink:href="#DejaVuSans-32"/><use xlink:href="#DejaVuSans-30" x="63.623"/><use xlink:href="#DejaVuSans-32" x="127.246"/><use xlink:href="#DejaVuSans-33" x="190.869"/><use xlink:href="#DejaVuSans-2d" x="254.492"/><use xlink:href="#DejaVuSans-30" x="290.576"/><use xlink:href="#DejaVuSans-31" x="354.199"/><use xlink:href="#DejaVuSans-2d" x="417.822"/><use xlink:href="#DejaVuSans-33" x="453.906"/><use xlink:href="#DejaVuSans-30" x="517.529"/></g></g><g id="xtick_9"><use xlink:href="#mcbe12354a2" id="line2d_9" x="1135.146" y="320.804" style="stroke:#000;stroke-width:.8"/><g id="text_9" transform="matrix(.1 0 0 -.1 1106.088 335.402)"><use xlink:href="#DejaVuSans-32"/><use xlink:href="#DejaVuSans-30" x="63.623"/><use xlink:href="#DejaVuSans-32" x="127.246"/><use xlink:href="#DejaVuSans-33" x="190.869"/><use xlink:href="#DejaVuSans-2d" x="254.492"/><use xlink:href="#DejaVuSans-30" x="290.576"/><use xlink:href="#DejaVuSans-31" x="354.199"/><use xlink:href="#DejaVuSans-2d" x="417.822"/><use xlink:href="#DejaVuSans-33" x="453.906"/><use xlink:href="#DejaVuSans-31" x="517.529"/></g></g><g id="xtick_10"><use xlink:href="#mcbe12354a2" id="line2d_10" x="1249.454" y="320.804" style="stroke:#000;stroke-width:.8"/><g id="text_10" transform="matrix(.1 0 0 -.1 1220.397 335.402)"><use xlink:href="#DejaVuSans-32"/><use xlink:href="#DejaVuSans-30" x="63.623"/><use xlink:href="#DejaVuSans-32" x="127.246"/><use xlink:href="#DejaVuSans-33" x="190.869"/><use xlink:href="#DejaVuSans-2d" x="254.492"/><use xlink:href="#DejaVuSans-30" x="290.576"/><use xlink:href="#DejaVuSans-32" x="354.199"/><use xlink:href="#DejaVuSans-2d" x="417.822"/><use xlink:href="#DejaVuSans-30" x="453.906"/><use xlink:href="#DejaVuSans-31" x="517.529"/></g></g><g id="xtick_11"><use xlink:href="#mcbe12354a2" id="line2d_11" x="1363.763" y="320.804" style="stroke:#000;stroke-width:.8"/><g id="text_11" transform="matrix(.1 0 0 -.1 1334.705 335.402)"><use xlink:href="#DejaVuSans-32"/><use xlink:href="#DejaVuSans-30" x="63.623"/><use xlink:href="#DejaVuSans-32" x="127.246"/><use xlink:href="#DejaVuSans-33" x="190.869"/><use xlink:href="#DejaVuSans-2d" x="254.492"/><use xlink:href="#DejaVuSans-30" x="290.576"/><use xlink:href="#DejaVuSans-32" x="354.199"/><use xlink:href="#DejaVuSans-2d" x="417.822"/><use xlink:href="#DejaVuSans-30" x="453.906"/><use xlink:href="#DejaVuSans-32" x="517.529"/></g></g><g id="text_12" transform="matrix(.1 0 0 -.1 816.761 349.08)"><defs><path id="DejaVuSans-64" d="M2906 2969v1894h575V0h-575v525q-181-312-458-464-276-152-664-152-634 0-1033 506-398 507-398 1332t398 1331q399 506 1033 506 388 0 664-152 277-151 458-463zM947 1747q0-634 261-995t717-361q456 0 718 361 263 361 263 995t-263 995q-262 361-718 361t-717-361q-261-361-261-995z" transform="scale(.01563)"/><path id="DejaVuSans-61" d="M2194 1759q-697 0-966-159t-269-544q0-306 202-486 202-179 548-179 479 0 768 339t289 901v128h-572zm1147 238V0h-575v531q-197-318-491-470T1556-91q-537 0-855 302-317 302-317 808 0 590 395 890 396 300 1180 300h807v57q0 397-261 614t-733 217q-300 0-585-72-284-72-546-216v532q315 122 612 182 297 61 578 61 760 0 1135-394 375-393 375-1193z" transform="scale(.01563)"/><path id="DejaVuSans-74" d="M1172 4494v-994h1184v-447H1172V1153q0-428 117-550t477-122h590V0h-590q-666 0-919 248-253 249-253 905v1900H172v447h422v994h578z" transform="scale(.01563)"/><path id="DejaVuSans-65" d="M3597 1894v-281H953q38-594 358-905t892-311q331 0 642 81t618 244V178Q3153 47 2828-22t-659-69q-838 0-1327 487-489 488-489 1320 0 859 464 1363 464 505 1252 505 706 0 1117-455 411-454 411-1235zm-575 169q-6 471-264 752-258 282-683 282-481 0-770-272t-333-766l2050 4z" transform="scale(.01563)"/></defs><use xlink:href="#DejaVuSans-64"/><use xlink:href="#DejaVuSans-61" x="63.477"/><use xlink:href="#DejaVuSans-74" x="124.756"/><use xlink:href="#DejaVuSans-65" x="163.965"/></g></g><g id="matplotlib.axis_2"><g id="ytick_1"><g id="line2d_12"><defs><path id="me56e59ad16" d="M0 0h-3.5" style="stroke:#000;stroke-width:.8"/></defs><use xlink:href="#me56e59ad16" x="201.96" y="311.273" style="stroke:#000;stroke-width:.8"/></g><use xlink:href="#DejaVuSans-30" id="text_13" transform="matrix(.1 0 0 -.1 188.597 315.072)"/></g><g id="ytick_2"><use xlink:href="#me56e59ad16" id="line2d_13" x="201.96" y="274.271" style="stroke:#000;stroke-width:.8"/><g id="text_14" transform="matrix(.1 0 0 -.1 169.51 278.07)"><use xlink:href="#DejaVuSans-32"/><use xlink:href="#DejaVuSans-30" x="63.623"/><use xlink:href="#DejaVuSans-30" x="127.246"/><use xlink:href="#DejaVuSans-30" x="190.869"/></g></g><g id="ytick_3"><use xlink:href="#me56e59ad16" id="line2d_14" x="201.96" y="237.27" style="stroke:#000;stroke-width:.8"/><g id="text_15" transform="matrix(.1 0 0 -.1 169.51 241.07)"><use xlink:href="#DejaVuSans-34"/><use xlink:href="#DejaVuSans-30" x="63.623"/><use xlink:href="#DejaVuSans-30" x="127.246"/><use xlink:href="#DejaVuSans-30" x="190.869"/></g></g><g id="ytick_4"><use xlink:href="#me56e59ad16" id="line2d_15" x="201.96" y="200.269" style="stroke:#000;stroke-width:.8"/><g id="text_16" transform="matrix(.1 0 0 -.1 169.51 204.068)"><use xlink:href="#DejaVuSans-36"/><use xlink:href="#DejaVuSans-30" x="63.623"/><use xlink:href="#DejaVuSans-30" x="127.246"/><use xlink:href="#DejaVuSans-30" x="190.869"/></g></g><g id="ytick_5"><use xlink:href="#me56e59ad16" id="line2d_16" x="201.96" y="163.267" style="stroke:#000;stroke-width:.8"/><g id="text_17" transform="matrix(.1 0 0 -.1 169.51 167.067)"><use xlink:href="#DejaVuSans-38"/><use xlink:href="#DejaVuSans-30" x="63.623"/><use xlink:href="#DejaVuSans-30" x="127.246"/><use xlink:href="#DejaVuSans-30" x="190.869"/></g></g><g id="ytick_6"><use xlink:href="#me56e59ad16" id="line2d_17" x="201.96" y="126.266" style="stroke:#000;stroke-width:.8"/><g id="text_18" transform="matrix(.1 0 0 -.1 163.148 130.065)"><use xlink:href="#DejaVuSans-31"/><use xlink:href="#DejaVuSans-30" x="63.623"/><use xlink:href="#DejaVuSans-30" x="127.246"/><use xlink:href="#DejaVuSans-30" x="190.869"/><use xlink:href="#DejaVuSans-30" x="254.492"/></g></g><g id="text_19" transform="matrix(0 -.1 -.1 0 157.068 248.555)"><defs><path id="DejaVuSans-6b" d="M581 4863h578V1991l1716 1509h734L1753 1863 3688 0h-750L1159 1709V0H581v4863z" transform="scale(.01563)"/><path id="DejaVuSans-79" d="M2059-325q-243-625-475-815-231-191-618-191H506v481h338q237 0 368 113 132 112 291 531l103 262L191 3500h609L1894 763l1094 2737h609L2059-325z" transform="scale(.01563)"/><path id="DejaVuSans-73" d="M2834 3397v-544q-243 125-506 187-262 63-544 63-428 0-642-131t-214-394q0-200 153-314t616-217l197-44q612-131 870-370t258-667q0-488-386-773Q2250-91 1575-91q-281 0-586 55T347 128v594q319-166 628-249 309-82 613-82 406 0 624 139 219 139 219 392 0 234-158 359-157 125-692 241l-200 47q-534 112-772 345-237 233-237 639 0 494 350 762 350 269 994 269 318 0 599-47 282-46 519-140z" transform="scale(.01563)"/><path id="DejaVuSans-70" d="M1159 525v-1856H581v4831h578v-531q182 312 458 463 277 152 661 152 638 0 1036-506 399-506 399-1331T3314 415Q2916-91 2278-91q-384 0-661 152-276 152-458 464zm1957 1222q0 634-261 995t-717 361q-457 0-718-361t-261-995q0-634 261-995t718-361q456 0 717 361t261 995z" transform="scale(.01563)"/><path id="DejaVuSans-72" d="M2631 2963q-97 56-211 82-114 27-251 27-488 0-749-317t-261-911V0H581v3500h578v-544q182 319 472 473 291 155 707 155 59 0 131-8 72-7 159-23l3-590z" transform="scale(.01563)"/></defs><use xlink:href="#DejaVuSans-6b"/><use xlink:href="#DejaVuSans-65" x="54.285"/><use xlink:href="#DejaVuSans-79" x="115.809"/><use xlink:href="#DejaVuSans-73" x="174.988"/><use xlink:href="#DejaVuSans-20" x="227.088"/><use xlink:href="#DejaVuSans-70" x="258.875"/><use xlink:href="#DejaVuSans-72" x="322.352"/><use xlink:href="#DejaVuSans-65" x="361.215"/><use xlink:href="#DejaVuSans-73" x="422.738"/><use xlink:href="#DejaVuSans-73" x="474.838"/><use xlink:href="#DejaVuSans-65" x="526.938"/><use xlink:href="#DejaVuSans-64" x="588.461"/></g></g><path id="line2d_18" d="m258.876 305.778 4.763 5.495 4.763-4.81 4.763-3.386 4.762 8.196h42.866l4.763-6.624 4.763-34.485 4.763-9.084 4.762-63.457 4.763 102.272 4.763-4.829 4.763 7.974 4.763-5.772 4.763-8.825 4.762 15.392 4.763-1.276 4.763-2.22 4.763 5.975 4.763 4.959h42.865l4.763-4.219 4.763-1.295 4.763-35.613 4.763 32.838 4.763-55.631 4.762 50.58 4.763 8.751 4.763-20.295 4.763-15.929 4.763-2.645 4.763 43.458 4.763-34.67 4.762-7.623 4.763 37.02 4.763 5.273h42.866l4.763-62.477 4.762-4.625 4.763-69.285 4.763 122.955 4.763 1.98 4.763-3.96 4.763 15.412 4.762-11.36 4.763 6.605 4.763-3.737 4.763-25.901 4.763 24.772 4.763 2.368 4.763 7.253h42.865l4.763-11.785 4.763-3.775 4.763 7.327 4.763 8.233 4.762-94.835 4.763 48.527 4.763 40.831 4.763-22.811 4.763 19.185 4.763 5.994 4.762-7.215 4.763-12.876 4.763-39.647 4.763 37.556 4.763 24.217 4.763 1.074h42.865l4.763-6.716 4.763.721 4.763-80.274 4.763 19.315 4.763-75.353 4.762-8.844 4.763-5.66 4.763 115.554 4.763-37.112 4.763-48.36 4.763 102.363 4.762 12.137 4.763-123.807 4.763 64.549 4.763-119.144 4.763 185.025 4.763 5.606h33.34l4.762-122.549 4.763 49.97 4.763-86.286 4.763 144.989 4.763-32.358 4.763-47.398 4.762 38.648 4.763-42.57 4.763 92.207 4.763 5.347 4.763-12.063 4.763-28.176 4.763-66.584 4.762-12.155 4.763 57.444 4.763 61.534h38.103l4.763-122.456 4.763-9.288 4.762 9.695 4.763 40.202 4.763 61.773 4.763-13.56 4.763 20.794 4.763 5.365 4.762 4.31 4.763 1.055 4.763-136.72 4.763 134.648 4.763 4.182h52.391l4.763-44.032 4.763-8.048 4.763-91.411 4.763 77.813 4.762 54.836 4.763-100.791 4.763 21.109 4.763 87.12 4.763 3.404 4.763-4.478 4.762-24.272 4.763.962 4.763 17.372 4.763 10.416h47.628l4.763-14.153 4.763-2.239 4.763-41.386 4.763 30.878 4.763 8.787 4.762-78.664 4.763 3.737 4.763 24.883 4.763 68.157 4.763-6.827 4.763-19.759 4.763 4.477 4.762-18.648 4.763 39.628 4.763 1.036 9.526.093h23.814l4.763-6.013 4.763.61 4.763.962 4.762 1.758 4.763.296 4.763-5.328 4.763 7.715 4.763-10.694 4.763 10.694 4.762-18.89 4.763 7.567 4.763 10.897 4.763-17.169h0" clip-path="url(#p93b8ae68c5)" style="fill:none;stroke:#1f77b4;stroke-width:1.5;stroke-linecap:square"/><path id="patch_3" d="M201.96 320.804V111.11" style="fill:none;stroke:#000;stroke-width:.8;stroke-linejoin:miter;stroke-linecap:square"/><path id="patch_4" d="M1454.112 320.804V111.11" style="fill:none;stroke:#000;stroke-width:.8;stroke-linejoin:miter;stroke-linecap:square"/><path id="patch_5" d="M201.96 320.804h1252.152" style="fill:none;stroke:#000;stroke-width:.8;stroke-linejoin:miter;stroke-linecap:square"/><path id="patch_6" d="M201.96 111.11h1252.152" style="fill:none;stroke:#000;stroke-width:.8;stroke-linejoin:miter;stroke-linecap:square"/></g><g id="axes_2"><path id="patch_7" d="M201.96 572.436h1252.152V362.743H201.96z" style="fill:#fff"/><g id="matplotlib.axis_3"><g id="xtick_12"><use xlink:href="#mcbe12354a2" id="line2d_19" x="287.833" y="572.436" style="stroke:#000;stroke-width:.8"/><g id="text_20" transform="matrix(.1 0 0 -.1 258.776 587.035)"><use xlink:href="#DejaVuSans-32"/><use xlink:href="#DejaVuSans-30" x="63.623"/><use xlink:href="#DejaVuSans-32" x="127.246"/><use xlink:href="#DejaVuSans-33" x="190.869"/><use xlink:href="#DejaVuSans-2d" x="254.492"/><use xlink:href="#DejaVuSans-30" x="290.576"/><use xlink:href="#DejaVuSans-31" x="354.199"/><use xlink:href="#DejaVuSans-2d" x="417.822"/><use xlink:href="#DejaVuSans-32" x="453.906"/><use xlink:href="#DejaVuSans-34" x="517.529"/></g></g><g id="xtick_13"><use xlink:href="#mcbe12354a2" id="line2d_20" x="402.142" y="572.436" style="stroke:#000;stroke-width:.8"/><g id="text_21" transform="matrix(.1 0 0 -.1 373.084 587.035)"><use xlink:href="#DejaVuSans-32"/><use xlink:href="#DejaVuSans-30" x="63.623"/><use xlink:href="#DejaVuSans-32" x="127.246"/><use xlink:href="#DejaVuSans-33" x="190.869"/><use xlink:href="#DejaVuSans-2d" x="254.492"/><use xlink:href="#DejaVuSans-30" x="290.576"/><use xlink:href="#DejaVuSans-31" x="354.199"/><use xlink:href="#DejaVuSans-2d" x="417.822"/><use xlink:href="#DejaVuSans-32" x="453.906"/><use xlink:href="#DejaVuSans-35" x="517.529"/></g></g><g id="xtick_14"><use xlink:href="#mcbe12354a2" id="line2d_21" x="516.45" y="572.436" style="stroke:#000;stroke-width:.8"/><g id="text_22" transform="matrix(.1 0 0 -.1 487.392 587.035)"><use xlink:href="#DejaVuSans-32"/><use xlink:href="#DejaVuSans-30" x="63.623"/><use xlink:href="#DejaVuSans-32" x="127.246"/><use xlink:href="#DejaVuSans-33" x="190.869"/><use xlink:href="#DejaVuSans-2d" x="254.492"/><use xlink:href="#DejaVuSans-30" x="290.576"/><use xlink:href="#DejaVuSans-31" x="354.199"/><use xlink:href="#DejaVuSans-2d" x="417.822"/><use xlink:href="#DejaVuSans-32" x="453.906"/><use xlink:href="#DejaVuSans-36" x="517.529"/></g></g><g id="xtick_15"><use xlink:href="#mcbe12354a2" id="line2d_22" x="630.758" y="572.436" style="stroke:#000;stroke-width:.8"/><g id="text_23" transform="matrix(.1 0 0 -.1 601.7 587.035)"><use xlink:href="#DejaVuSans-32"/><use xlink:href="#DejaVuSans-30" x="63.623"/><use xlink:href="#DejaVuSans-32" x="127.246"/><use xlink:href="#DejaVuSans-33" x="190.869"/><use xlink:href="#DejaVuSans-2d" x="254.492"/><use xlink:href="#DejaVuSans-30" x="290.576"/><use xlink:href="#DejaVuSans-31" x="354.199"/><use xlink:href="#DejaVuSans-2d" x="417.822"/><use xlink:href="#DejaVuSans-32" x="453.906"/><use xlink:href="#DejaVuSans-37" x="517.529"/></g></g><g id="xtick_16"><use xlink:href="#mcbe12354a2" id="line2d_23" x="745.067" y="572.436" style="stroke:#000;stroke-width:.8"/><g id="text_24" transform="matrix(.1 0 0 -.1 716.009 587.035)"><use xlink:href="#DejaVuSans-32"/><use xlink:href="#DejaVuSans-30" x="63.623"/><use xlink:href="#DejaVuSans-32" x="127.246"/><use xlink:href="#DejaVuSans-33" x="190.869"/><use xlink:href="#DejaVuSans-2d" x="254.492"/><use xlink:href="#DejaVuSans-30" x="290.576"/><use xlink:href="#DejaVuSans-31" x="354.199"/><use xlink:href="#DejaVuSans-2d" x="417.822"/><use xlink:href="#DejaVuSans-32" x="453.906"/><use xlink:href="#DejaVuSans-38" x="517.529"/></g></g><g id="xtick_17"><use xlink:href="#mcbe12354a2" id="line2d_24" x="859.375" y="572.436" style="stroke:#000;stroke-width:.8"/><g id="text_25" transform="matrix(.1 0 0 -.1 830.317 587.035)"><use xlink:href="#DejaVuSans-32"/><use xlink:href="#DejaVuSans-30" x="63.623"/><use xlink:href="#DejaVuSans-32" x="127.246"/><use xlink:href="#DejaVuSans-33" x="190.869"/><use xlink:href="#DejaVuSans-2d" x="254.492"/><use xlink:href="#DejaVuSans-30" x="290.576"/><use xlink:href="#DejaVuSans-31" x="354.199"/><use xlink:href="#DejaVuSans-2d" x="417.822"/><use xlink:href="#DejaVuSans-32" x="453.906"/><use xlink:href="#DejaVuSans-39" x="517.529"/></g></g><g id="xtick_18"><use xlink:href="#mcbe12354a2" id="line2d_25" x="973.683" y="572.436" style="stroke:#000;stroke-width:.8"/><g id="text_26" transform="matrix(.1 0 0 -.1 944.625 587.035)"><use xlink:href="#DejaVuSans-32"/><use xlink:href="#DejaVuSans-30" x="63.623"/><use xlink:href="#DejaVuSans-32" x="127.246"/><use xlink:href="#DejaVuSans-33" x="190.869"/><use xlink:href="#DejaVuSans-2d" x="254.492"/><use xlink:href="#DejaVuSans-30" x="290.576"/><use xlink:href="#DejaVuSans-31" x="354.199"/><use xlink:href="#DejaVuSans-2d" x="417.822"/><use xlink:href="#DejaVuSans-33" x="453.906"/><use xlink:href="#DejaVuSans-30" x="517.529"/></g></g><g id="xtick_19"><use xlink:href="#mcbe12354a2" id="line2d_26" x="1087.991" y="572.436" style="stroke:#000;stroke-width:.8"/><g id="text_27" transform="matrix(.1 0 0 -.1 1058.934 587.035)"><use xlink:href="#DejaVuSans-32"/><use xlink:href="#DejaVuSans-30" x="63.623"/><use xlink:href="#DejaVuSans-32" x="127.246"/><use xlink:href="#DejaVuSans-33" x="190.869"/><use xlink:href="#DejaVuSans-2d" x="254.492"/><use xlink:href="#DejaVuSans-30" x="290.576"/><use xlink:href="#DejaVuSans-31" x="354.199"/><use xlink:href="#DejaVuSans-2d" x="417.822"/><use xlink:href="#DejaVuSans-33" x="453.906"/><use xlink:href="#DejaVuSans-31" x="517.529"/></g></g><g id="xtick_20"><use xlink:href="#mcbe12354a2" id="line2d_27" x="1202.3" y="572.436" style="stroke:#000;stroke-width:.8"/><g id="text_28" transform="matrix(.1 0 0 -.1 1173.242 587.035)"><use xlink:href="#DejaVuSans-32"/><use xlink:href="#DejaVuSans-30" x="63.623"/><use xlink:href="#DejaVuSans-32" x="127.246"/><use xlink:href="#DejaVuSans-33" x="190.869"/><use xlink:href="#DejaVuSans-2d" x="254.492"/><use xlink:href="#DejaVuSans-30" x="290.576"/><use xlink:href="#DejaVuSans-32" x="354.199"/><use xlink:href="#DejaVuSans-2d" x="417.822"/><use xlink:href="#DejaVuSans-30" x="453.906"/><use xlink:href="#DejaVuSans-31" x="517.529"/></g></g><g id="xtick_21"><use xlink:href="#mcbe12354a2" id="line2d_28" x="1316.608" y="572.436" style="stroke:#000;stroke-width:.8"/><g id="text_29" transform="matrix(.1 0 0 -.1 1287.55 587.035)"><use xlink:href="#DejaVuSans-32"/><use xlink:href="#DejaVuSans-30" x="63.623"/><use xlink:href="#DejaVuSans-32" x="127.246"/><use xlink:href="#DejaVuSans-33" x="190.869"/><use xlink:href="#DejaVuSans-2d" x="254.492"/><use xlink:href="#DejaVuSans-30" x="290.576"/><use xlink:href="#DejaVuSans-32" x="354.199"/><use xlink:href="#DejaVuSans-2d" x="417.822"/><use xlink:href="#DejaVuSans-30" x="453.906"/><use xlink:href="#DejaVuSans-32" x="517.529"/></g></g><g id="xtick_22"><use xlink:href="#mcbe12354a2" id="line2d_29" x="1430.916" y="572.436" style="stroke:#000;stroke-width:.8"/><g id="text_30" transform="matrix(.1 0 0 -.1 1401.859 587.035)"><use xlink:href="#DejaVuSans-32"/><use xlink:href="#DejaVuSans-30" x="63.623"/><use xlink:href="#DejaVuSans-32" x="127.246"/><use xlink:href="#DejaVuSans-33" x="190.869"/><use xlink:href="#DejaVuSans-2d" x="254.492"/><use xlink:href="#DejaVuSans-30" x="290.576"/><use xlink:href="#DejaVuSans-32" x="354.199"/><use xlink:href="#DejaVuSans-2d" x="417.822"/><use xlink:href="#DejaVuSans-30" x="453.906"/><use xlink:href="#DejaVuSans-33" x="517.529"/></g></g><g id="text_31" transform="matrix(.1 0 0 -.1 816.761 600.713)"><use xlink:href="#DejaVuSans-64"/><use xlink:href="#DejaVuSans-61" x="63.477"/><use xlink:href="#DejaVuSans-74" x="124.756"/><use xlink:href="#DejaVuSans-65" x="163.965"/></g></g><g id="matplotlib.axis_4"><g id="ytick_7"><use xlink:href="#me56e59ad16" id="line2d_30" x="201.96" y="562.905" style="stroke:#000;stroke-width:.8"/><use xlink:href="#DejaVuSans-30" id="text_32" transform="matrix(.1 0 0 -.1 188.597 566.704)"/></g><g id="ytick_8"><use xlink:href="#me56e59ad16" id="line2d_31" x="201.96" y="523.68" style="stroke:#000;stroke-width:.8"/><g id="text_33" transform="matrix(.1 0 0 -.1 175.873 527.48)"><use xlink:href="#DejaVuSans-32"/><use xlink:href="#DejaVuSans-30" x="63.623"/><use xlink:href="#DejaVuSans-30" x="127.246"/></g></g><g id="ytick_9"><use xlink:href="#me56e59ad16" id="line2d_32" x="201.96" y="484.456" style="stroke:#000;stroke-width:.8"/><g id="text_34" transform="matrix(.1 0 0 -.1 175.873 488.255)"><use xlink:href="#DejaVuSans-34"/><use xlink:href="#DejaVuSans-30" x="63.623"/><use xlink:href="#DejaVuSans-30" x="127.246"/></g></g><g id="ytick_10"><use xlink:href="#me56e59ad16" id="line2d_33" x="201.96" y="445.232" style="stroke:#000;stroke-width:.8"/><g id="text_35" transform="matrix(.1 0 0 -.1 175.873 449.03)"><use xlink:href="#DejaVuSans-36"/><use xlink:href="#DejaVuSans-30" x="63.623"/><use xlink:href="#DejaVuSans-30" x="127.246"/></g></g><g id="ytick_11"><use xlink:href="#me56e59ad16" id="line2d_34" x="201.96" y="406.007" style="stroke:#000;stroke-width:.8"/><g id="text_36" transform="matrix(.1 0 0 -.1 175.873 409.807)"><use xlink:href="#DejaVuSans-38"/><use xlink:href="#DejaVuSans-30" x="63.623"/><use xlink:href="#DejaVuSans-30" x="127.246"/></g></g><g id="ytick_12"><use xlink:href="#me56e59ad16" id="line2d_35" x="201.96" y="366.783" style="stroke:#000;stroke-width:.8"/><g id="text_37" transform="matrix(.1 0 0 -.1 169.51 370.582)"><use xlink:href="#DejaVuSans-31"/><use xlink:href="#DejaVuSans-30" x="63.623"/><use xlink:href="#DejaVuSans-30" x="127.246"/><use xlink:href="#DejaVuSans-30" x="190.869"/></g></g><g id="text_38" transform="matrix(0 -.1 -.1 0 163.43 481.366)"><defs><path id="DejaVuSans-63" d="M3122 3366v-538q-244 135-489 202t-495 67q-560 0-870-355-309-354-309-995t309-996q310-354 870-354 250 0 495 67t489 202V134Q2881 22 2623-34q-257-57-548-57-791 0-1257 497-465 497-465 1341 0 856 470 1346 471 491 1290 491 265 0 518-55 253-54 491-163z" transform="scale(.01563)"/><path id="DejaVuSans-6c" d="M603 4863h575V0H603v4863z" transform="scale(.01563)"/><path id="DejaVuSans-69" d="M603 3500h575V0H603v3500zm0 1363h575v-729H603v729z" transform="scale(.01563)"/></defs><use xlink:href="#DejaVuSans-63"/><use xlink:href="#DejaVuSans-6c" x="54.98"/><use xlink:href="#DejaVuSans-69" x="82.764"/><use xlink:href="#DejaVuSans-63" x="110.547"/><use xlink:href="#DejaVuSans-6b" x="165.527"/><use xlink:href="#DejaVuSans-73" x="223.438"/></g></g><path id="line2d_36" d="m258.876 539.37 4.763-27.26 4.763-1.374 4.763 52.169h47.628l4.763-152.19 4.763 72.957 4.763-16.082 4.762 62.955 4.763-43.932 4.763 8.826 4.763 20.004 4.763-9.61 4.763 12.356 4.762 30.595 4.763-12.944 4.763-40.205 4.763 9.022 4.763 58.248h42.865l4.763-18.632 4.763-8.237 4.763-79.43 4.763 87.471 4.763-30.791 4.762-43.147 4.763 81.783 4.763-179.648 4.763 41.186 4.763 27.653 4.763 121.792 4.763-126.695 4.762 53.738 4.763 58.836 4.763 6.472 4.763 7.649h38.103l4.763-85.117 4.762 13.925 4.763-19.416 4.763 24.123 4.763-10.591 4.763 16.278 4.763 60.798 4.762-39.42 4.763-4.511 4.763-43.147 4.763-26.673 4.763 74.134 4.763 2.942 4.763 36.675h42.865l4.763-43.735 4.763-10.983 4.763-31.576 4.763 29.026 4.762-11.57 4.763 24.514 4.763 44.324 4.763-85.902 4.763 62.171 4.763-2.746 4.762-41.381 4.763-53.542 4.763 34.518 4.763-16.867 4.763 82.764 4.763 20.985h42.865l4.763-26.28 4.763-1.373 4.763-47.658 4.763 10.198 4.763-50.403 4.762 51.58 4.763-24.711 4.763 44.912 4.763 20.592 4.763-27.849 4.763-19.612 4.762 24.32 4.763-21.77 4.763-36.48 4.763-48.441 4.763 135.716 4.763 17.259h33.34l4.762-122.184 4.763 20.593 4.763 28.437 4.763 34.322 4.763-11.964 4.763 21.378 4.762-5.1 4.763-32.752 4.763 48.834 4.763 18.436 4.763-86.294 4.763-53.149 4.763 67.074 4.762-1.373 4.763 36.283 4.763 37.459h38.103l4.763-80.41 4.763 11.179 4.762-80.802 4.763 65.897 4.763 13.336 4.763 31.38 4.763-41.578 4.763 63.935 4.762-2.745 4.763 8.04 4.763-31.183 4.763 42.95 4.763-6.667 4.763 6.668h47.628l4.763-102.768 4.763-61.582 4.763 83.155 4.763 6.08 4.762 10.002 4.763-29.418 4.763 57.66 4.763 36.87 4.763-26.672 4.763-74.33 4.762 59.229 4.763-22.75 4.763 41.774 4.763 22.75h47.628l4.763-63.151 4.763 31.967 4.763-84.136 4.763 69.623 4.763-17.65 4.762-2.746 4.763 66.093 4.763-50.403 4.763-29.027 4.763 10.787 4.763 50.207 4.763-16.278 4.762-33.34 4.763 65.504 4.763 1.765 4.763.785h28.577l4.763-14.12 4.763 14.12 4.763-12.16 4.762 6.08 9.526 3.53 4.763-59.62 4.763-14.514 4.763 76.684 4.762-45.5 9.526 43.539 4.763-104.337h0" clip-path="url(#pfd094ad192)" style="fill:none;stroke:#1f77b4;stroke-width:1.5;stroke-linecap:square"/><path id="line2d_37" d="m258.876 560.16 4.763 2.353 4.763-1.177 4.763 1.569h47.628l4.763-3.334 4.763 2.55 4.763-3.335 4.762 2.158 4.763 1.765 4.763-3.334 4.763-2.55 4.763-4.903 4.763 9.022 4.762 1.569 4.763-2.354 4.763-5.295 4.763 4.903 4.763 3.138h42.865l4.763-1.765 4.763.784 4.763.196 4.763.393 4.763-1.57 4.762-4.706 4.763 6.276 4.763-18.828 4.763 18.632 4.763-.197 4.763.785 4.763-.392 4.762-2.55 4.763.98 4.763 1.962h42.866l4.763-2.157 4.762.784 4.763.196 4.763-.98 4.763.784h4.763l4.763 1.373 4.762-1.961 4.763 1.176 4.763-5.295 4.763 3.334 4.763 1.57 4.763 1.176h47.628l4.763-3.334 4.763 1.569 4.763-.589 4.763 1.962 4.762-.785 4.763.98 4.763.197 4.763-2.746 4.763 2.55 4.763-.589 4.762-4.707 4.763-32.752 4.763 35.302 4.763.196 9.526 2.746h42.865l4.763-3.923 4.763 2.354h4.763l4.763-.392 4.763-4.119 4.762.98 4.763-.195 4.763 2.353 4.763 1.961 4.763-.196 4.763-3.922 4.762-1.961 4.763 4.903 4.763-.981 4.763-1.177 4.763 3.727 4.763.588h33.34l4.762-2.942 4.763.392 4.763-2.55 4.763 2.158h4.763l4.763 2.354 4.762-.393 4.763.785 4.763-1.177 4.763 1.373 4.763-2.157 4.763-5.296 4.763 5.884 4.762-2.746 4.763 3.138 4.763 1.177h38.103l4.763-5.492 4.763 2.746 4.762-3.334 4.763 1.765 4.763-1.569 4.763 3.727 4.763 1.372h4.763l4.762-3.138 4.763 2.354 4.763.588 4.763.98 4.763-.195 4.763.196h47.628l4.763-1.765 4.763-1.177 4.763.785 9.525 1.176 4.763-.98 4.763 1.176 4.763.785 4.763-3.53 4.763-6.08 4.762 7.845 4.763 1.177 4.763-.785 4.763 1.373h47.628l4.763-1.765 4.763.98 4.763-2.941 4.763 3.334 4.763-2.158 4.762 1.765 4.763.785 4.763-.785 9.526-5.491 4.763 5.884 4.763-.785 4.762-.392 4.763 1.569h38.103l4.763-.392 4.763.392 4.763-1.177 4.762.98 4.763.197h4.763l4.763-6.472 4.763 2.746 4.763 3.726 4.762-1.765 4.763-.392 4.763 2.157 4.763-.98h0" clip-path="url(#pfd094ad192)" style="fill:none;stroke:#ff7f0e;stroke-width:1.5;stroke-linecap:square"/><path id="line2d_38" d="m258.876 560.944 4.763 1.569 4.763-2.746 4.763 3.138h47.628l4.763-34.91 4.763-42.95 4.763 73.35 9.525.784 4.763-2.55 4.763 3.53 4.763-.588 4.763-.392 4.762 3.334 4.763.392 4.763-1.57 4.763-.587 4.763 2.157h42.865l4.763-1.373h4.763l4.763-46.48 4.763 47.46 4.763-4.118 4.762.196 4.763 3.727 4.763-10.395 4.763 5.1 4.763 3.922 4.763 1.96 4.763-2.745 4.762.392 4.763 1.962 4.763-.393 4.763.785h38.103l4.763-11.767 4.762 5.687 4.763-3.138 4.763 6.472 9.526 1.177 4.763 1.569 4.762-.588 4.763-1.57 4.763-1.96 4.763-4.315 4.763 7.845 4.763-1.373 4.763 1.96h42.865l4.763-2.94 4.763-.59 4.763-9.02 4.763 6.863 4.762 2.942 4.763 1.961 4.763.785 4.763-8.63 4.763 6.473 4.763.784 4.762-1.373 4.763-2.942 4.763-1.765 4.763 1.373 4.763 5.1 4.763.98h42.865l4.763-2.55 4.763 2.354 4.763-7.649 4.763 3.726 4.763-2.353 4.762 2.746 4.763-3.53 4.763 5.687 4.763.588 9.526-3.53 4.762 2.354 9.526-1.57 4.763-6.864 4.763 8.237 4.763 2.354h33.34l4.762-7.845 4.763-24.711 4.763 28.241 4.763 2.942 4.763-4.707 4.763 2.55 4.762-1.765 4.763.784 4.763 2.55 4.763 1.96 4.763-5.883 4.763.589 4.763.98 4.762-1.569 9.526 5.884h38.103l4.763-5.688 4.763 1.373 4.762-4.118 4.763 1.765 4.763 2.745 4.763 2.55 4.763-.392 4.763 1.569 4.762-1.373 4.763 1.177 4.763-3.138 4.763 3.53 4.763-.392 4.763.392h47.628l4.763-36.675 4.763 27.065 4.763-1.57 4.763 6.08 4.762.981 4.763-2.353 4.763 4.51 4.763 1.962 4.763-1.961 4.763-2.354 4.762 1.57 4.763-4.12 4.763 3.727 4.763 3.138h47.628l4.763-4.903 4.763 1.373 4.763-4.119 4.763 3.138 4.763-.196 4.762-1.961 4.763 6.668 4.763-3.53 4.763-1.177 4.763.588 4.763 3.334 4.763-1.569 4.762-1.372 4.763 2.941 4.763.785h42.866l4.763-1.57 4.762.393 4.763 1.177 4.763-.588 4.763-2.942 9.526 3.53 4.762-1.961 4.763.784 4.763 1.177 4.763-1.177h0" clip-path="url(#pfd094ad192)" style="fill:none;stroke:#2ca02c;stroke-width:1.5;stroke-linecap:square"/><path id="patch_8" d="M201.96 572.436V362.743" style="fill:none;stroke:#000;stroke-width:.8;stroke-linejoin:miter;stroke-linecap:square"/><path id="patch_9" d="M1454.112 572.436V362.743" style="fill:none;stroke:#000;stroke-width:.8;stroke-linejoin:miter;stroke-linecap:square"/><path id="patch_10" d="M201.96 572.436h1252.152" style="fill:none;stroke:#000;stroke-width:.8;stroke-linejoin:miter;stroke-linecap:square"/><path id="patch_11" d="M201.96 362.743h1252.152" style="fill:none;stroke:#000;stroke-width:.8;stroke-linejoin:miter;stroke-linecap:square"/><g id="legend_1"><path id="patch_12" d="M1355.443 414.777h91.669q2 0 2-2v-43.034q0-2-2-2h-91.669q-2 0-2 2v43.034q0 2 2 2z" style="fill:#fff;opacity:.8;stroke:#ccc;stroke-linejoin:miter"/><path id="line2d_39" d="M1357.443 375.841h20" style="fill:none;stroke:#1f77b4;stroke-width:1.5;stroke-linecap:square"/><g id="text_39" transform="matrix(.1 0 0 -.1 1385.443 379.341)"><defs><path id="DejaVuSans-66" d="M2375 4863v-479h-550q-309 0-430-125-120-125-120-450v-309h947v-447h-947V0H697v3053H147v447h550v244q0 584 272 851 272 268 862 268h544z" transform="scale(.01563)"/></defs><use xlink:href="#DejaVuSans-6c"/><use xlink:href="#DejaVuSans-65" x="27.783"/><use xlink:href="#DejaVuSans-66" x="89.307"/><use xlink:href="#DejaVuSans-74" x="122.762"/><use xlink:href="#DejaVuSans-20" x="161.971"/><use xlink:href="#DejaVuSans-63" x="193.758"/><use xlink:href="#DejaVuSans-6c" x="248.738"/><use xlink:href="#DejaVuSans-69" x="276.521"/><use xlink:href="#DejaVuSans-63" x="304.305"/><use xlink:href="#DejaVuSans-6b" x="359.285"/></g><path id="line2d_40" d="M1357.443 390.52h20" style="fill:none;stroke:#ff7f0e;stroke-width:1.5;stroke-linecap:square"/><g id="text_40" transform="matrix(.1 0 0 -.1 1385.443 394.02)"><defs><path id="DejaVuSans-6d" d="M3328 2828q216 388 516 572t706 184q547 0 844-383 297-382 297-1088V0h-578v2094q0 503-179 746-178 244-543 244-447 0-707-297-259-296-259-809V0h-578v2094q0 506-178 748t-550 242q-441 0-701-298-259-298-259-808V0H581v3500h578v-544q197 322 472 475t653 153q382 0 649-194 267-193 395-562z" transform="scale(.01563)"/></defs><use xlink:href="#DejaVuSans-6d"/><use xlink:href="#DejaVuSans-69" x="97.412"/><use xlink:href="#DejaVuSans-64" x="125.195"/><use xlink:href="#DejaVuSans-64" x="188.672"/><use xlink:href="#DejaVuSans-6c" x="252.148"/><use xlink:href="#DejaVuSans-65" x="279.932"/><use xlink:href="#DejaVuSans-20" x="341.455"/><use xlink:href="#DejaVuSans-63" x="373.242"/><use xlink:href="#DejaVuSans-6c" x="428.223"/><use xlink:href="#DejaVuSans-69" x="456.006"/><use xlink:href="#DejaVuSans-63" x="483.789"/><use xlink:href="#DejaVuSans-6b" x="538.77"/></g><path id="line2d_41" d="M1357.443 405.197h20" style="fill:none;stroke:#2ca02c;stroke-width:1.5;stroke-linecap:square"/><g id="text_41" transform="matrix(.1 0 0 -.1 1385.443 408.697)"><defs><path id="DejaVuSans-67" d="M2906 1791q0 625-258 968-257 344-723 344-462 0-720-344-258-343-258-968 0-622 258-966t720-344q466 0 723 344 258 344 258 966zm575-1357q0-893-397-1329-396-436-1215-436-303 0-572 45t-522 139v559q253-137 500-202 247-66 503-66 566 0 847 295t281 892v285q-178-310-456-463T1784 0Q1141 0 747 490 353 981 353 1791q0 812 394 1302 394 491 1037 491 388 0 666-153t456-462v531h575V434z" transform="scale(.01563)"/><path id="DejaVuSans-68" d="M3513 2113V0h-575v2094q0 497-194 743-194 247-581 247-466 0-735-297-269-296-269-809V0H581v4863h578V2956q207 316 486 472 280 156 646 156 603 0 912-373 310-373 310-1098z" transform="scale(.01563)"/></defs><use xlink:href="#DejaVuSans-72"/><use xlink:href="#DejaVuSans-69" x="41.113"/><use xlink:href="#DejaVuSans-67" x="68.896"/><use xlink:href="#DejaVuSans-68" x="132.373"/><use xlink:href="#DejaVuSans-74" x="195.752"/><use xlink:href="#DejaVuSans-20" x="234.961"/><use xlink:href="#DejaVuSans-63" x="266.748"/><use xlink:href="#DejaVuSans-6c" x="321.729"/><use xlink:href="#DejaVuSans-69" x="349.512"/><use xlink:href="#DejaVuSans-63" x="377.295"/><use xlink:href="#DejaVuSans-6b" x="432.275"/></g></g></g><g id="axes_3"><path id="patch_13" d="M201.96 824.069h1252.152V614.375H201.96z" style="fill:#fff"/><g id="matplotlib.axis_5"><g id="xtick_23"><use xlink:href="#mcbe12354a2" id="line2d_42" x="287.833" y="824.069" style="stroke:#000;stroke-width:.8"/><g id="text_42" transform="matrix(.1 0 0 -.1 258.776 838.667)"><use xlink:href="#DejaVuSans-32"/><use xlink:href="#DejaVuSans-30" x="63.623"/><use xlink:href="#DejaVuSans-32" x="127.246"/><use xlink:href="#DejaVuSans-33" x="190.869"/><use xlink:href="#DejaVuSans-2d" x="254.492"/><use xlink:href="#DejaVuSans-30" x="290.576"/><use xlink:href="#DejaVuSans-31" x="354.199"/><use xlink:href="#DejaVuSans-2d" x="417.822"/><use xlink:href="#DejaVuSans-32" x="453.906"/><use xlink:href="#DejaVuSans-34" x="517.529"/></g></g><g id="xtick_24"><use xlink:href="#mcbe12354a2" id="line2d_43" x="402.142" y="824.069" style="stroke:#000;stroke-width:.8"/><g id="text_43" transform="matrix(.1 0 0 -.1 373.084 838.667)"><use xlink:href="#DejaVuSans-32"/><use xlink:href="#DejaVuSans-30" x="63.623"/><use xlink:href="#DejaVuSans-32" x="127.246"/><use xlink:href="#DejaVuSans-33" x="190.869"/><use xlink:href="#DejaVuSans-2d" x="254.492"/><use xlink:href="#DejaVuSans-30" x="290.576"/><use xlink:href="#DejaVuSans-31" x="354.199"/><use xlink:href="#DejaVuSans-2d" x="417.822"/><use xlink:href="#DejaVuSans-32" x="453.906"/><use xlink:href="#DejaVuSans-35" x="517.529"/></g></g><g id="xtick_25"><use xlink:href="#mcbe12354a2" id="line2d_44" x="516.45" y="824.069" style="stroke:#000;stroke-width:.8"/><g id="text_44" transform="matrix(.1 0 0 -.1 487.392 838.667)"><use xlink:href="#DejaVuSans-32"/><use xlink:href="#DejaVuSans-30" x="63.623"/><use xlink:href="#DejaVuSans-32" x="127.246"/><use xlink:href="#DejaVuSans-33" x="190.869"/><use xlink:href="#DejaVuSans-2d" x="254.492"/><use xlink:href="#DejaVuSans-30" x="290.576"/><use xlink:href="#DejaVuSans-31" x="354.199"/><use xlink:href="#DejaVuSans-2d" x="417.822"/><use xlink:href="#DejaVuSans-32" x="453.906"/><use xlink:href="#DejaVuSans-36" x="517.529"/></g></g><g id="xtick_26"><use xlink:href="#mcbe12354a2" id="line2d_45" x="630.758" y="824.069" style="stroke:#000;stroke-width:.8"/><g id="text_45" transform="matrix(.1 0 0 -.1 601.7 838.667)"><use xlink:href="#DejaVuSans-32"/><use xlink:href="#DejaVuSans-30" x="63.623"/><use xlink:href="#DejaVuSans-32" x="127.246"/><use xlink:href="#DejaVuSans-33" x="190.869"/><use xlink:href="#DejaVuSans-2d" x="254.492"/><use xlink:href="#DejaVuSans-30" x="290.576"/><use xlink:href="#DejaVuSans-31" x="354.199"/><use xlink:href="#DejaVuSans-2d" x="417.822"/><use xlink:href="#DejaVuSans-32" x="453.906"/><use xlink:href="#DejaVuSans-37" x="517.529"/></g></g><g id="xtick_27"><use xlink:href="#mcbe12354a2" id="line2d_46" x="745.067" y="824.069" style="stroke:#000;stroke-width:.8"/><g id="text_46" transform="matrix(.1 0 0 -.1 716.009 838.667)"><use xlink:href="#DejaVuSans-32"/><use xlink:href="#DejaVuSans-30" x="63.623"/><use xlink:href="#DejaVuSans-32" x="127.246"/><use xlink:href="#DejaVuSans-33" x="190.869"/><use xlink:href="#DejaVuSans-2d" x="254.492"/><use xlink:href="#DejaVuSans-30" x="290.576"/><use xlink:href="#DejaVuSans-31" x="354.199"/><use xlink:href="#DejaVuSans-2d" x="417.822"/><use xlink:href="#DejaVuSans-32" x="453.906"/><use xlink:href="#DejaVuSans-38" x="517.529"/></g></g><g id="xtick_28"><use xlink:href="#mcbe12354a2" id="line2d_47" x="859.375" y="824.069" style="stroke:#000;stroke-width:.8"/><g id="text_47" transform="matrix(.1 0 0 -.1 830.317 838.667)"><use xlink:href="#DejaVuSans-32"/><use xlink:href="#DejaVuSans-30" x="63.623"/><use xlink:href="#DejaVuSans-32" x="127.246"/><use xlink:href="#DejaVuSans-33" x="190.869"/><use xlink:href="#DejaVuSans-2d" x="254.492"/><use xlink:href="#DejaVuSans-30" x="290.576"/><use xlink:href="#DejaVuSans-31" x="354.199"/><use xlink:href="#DejaVuSans-2d" x="417.822"/><use xlink:href="#DejaVuSans-32" x="453.906"/><use xlink:href="#DejaVuSans-39" x="517.529"/></g></g><g id="xtick_29"><use xlink:href="#mcbe12354a2" id="line2d_48" x="973.683" y="824.069" style="stroke:#000;stroke-width:.8"/><g id="text_48" transform="matrix(.1 0 0 -.1 944.625 838.667)"><use xlink:href="#DejaVuSans-32"/><use xlink:href="#DejaVuSans-30" x="63.623"/><use xlink:href="#DejaVuSans-32" x="127.246"/><use xlink:href="#DejaVuSans-33" x="190.869"/><use xlink:href="#DejaVuSans-2d" x="254.492"/><use xlink:href="#DejaVuSans-30" x="290.576"/><use xlink:href="#DejaVuSans-31" x="354.199"/><use xlink:href="#DejaVuSans-2d" x="417.822"/><use xlink:href="#DejaVuSans-33" x="453.906"/><use xlink:href="#DejaVuSans-30" x="517.529"/></g></g><g id="xtick_30"><use xlink:href="#mcbe12354a2" id="line2d_49" x="1087.991" y="824.069" style="stroke:#000;stroke-width:.8"/><g id="text_49" transform="matrix(.1 0 0 -.1 1058.934 838.667)"><use xlink:href="#DejaVuSans-32"/><use xlink:href="#DejaVuSans-30" x="63.623"/><use xlink:href="#DejaVuSans-32" x="127.246"/><use xlink:href="#DejaVuSans-33" x="190.869"/><use xlink:href="#DejaVuSans-2d" x="254.492"/><use xlink:href="#DejaVuSans-30" x="290.576"/><use xlink:href="#DejaVuSans-31" x="354.199"/><use xlink:href="#DejaVuSans-2d" x="417.822"/><use xlink:href="#DejaVuSans-33" x="453.906"/><use xlink:href="#DejaVuSans-31" x="517.529"/></g></g><g id="xtick_31"><use xlink:href="#mcbe12354a2" id="line2d_50" x="1202.3" y="824.069" style="stroke:#000;stroke-width:.8"/><g id="text_50" transform="matrix(.1 0 0 -.1 1173.242 838.667)"><use xlink:href="#DejaVuSans-32"/><use xlink:href="#DejaVuSans-30" x="63.623"/><use xlink:href="#DejaVuSans-32" x="127.246"/><use xlink:href="#DejaVuSans-33" x="190.869"/><use xlink:href="#DejaVuSans-2d" x="254.492"/><use xlink:href="#DejaVuSans-30" x="290.576"/><use xlink:href="#DejaVuSans-32" x="354.199"/><use xlink:href="#DejaVuSans-2d" x="417.822"/><use xlink:href="#DejaVuSans-30" x="453.906"/><use xlink:href="#DejaVuSans-31" x="517.529"/></g></g><g id="xtick_32"><use xlink:href="#mcbe12354a2" id="line2d_51" x="1316.608" y="824.069" style="stroke:#000;stroke-width:.8"/><g id="text_51" transform="matrix(.1 0 0 -.1 1287.55 838.667)"><use xlink:href="#DejaVuSans-32"/><use xlink:href="#DejaVuSans-30" x="63.623"/><use xlink:href="#DejaVuSans-32" x="127.246"/><use xlink:href="#DejaVuSans-33" x="190.869"/><use xlink:href="#DejaVuSans-2d" x="254.492"/><use xlink:href="#DejaVuSans-30" x="290.576"/><use xlink:href="#DejaVuSans-32" x="354.199"/><use xlink:href="#DejaVuSans-2d" x="417.822"/><use xlink:href="#DejaVuSans-30" x="453.906"/><use xlink:href="#DejaVuSans-32" x="517.529"/></g></g><g id="xtick_33"><use xlink:href="#mcbe12354a2" id="line2d_52" x="1430.916" y="824.069" style="stroke:#000;stroke-width:.8"/><g id="text_52" transform="matrix(.1 0 0 -.1 1401.859 838.667)"><use xlink:href="#DejaVuSans-32"/><use xlink:href="#DejaVuSans-30" x="63.623"/><use xlink:href="#DejaVuSans-32" x="127.246"/><use xlink:href="#DejaVuSans-33" x="190.869"/><use xlink:href="#DejaVuSans-2d" x="254.492"/><use xlink:href="#DejaVuSans-30" x="290.576"/><use xlink:href="#DejaVuSans-32" x="354.199"/><use xlink:href="#DejaVuSans-2d" x="417.822"/><use xlink:href="#DejaVuSans-30" x="453.906"/><use xlink:href="#DejaVuSans-33" x="517.529"/></g></g><g id="text_53" transform="matrix(.1 0 0 -.1 816.761 852.345)"><use xlink:href="#DejaVuSans-64"/><use xlink:href="#DejaVuSans-61" x="63.477"/><use xlink:href="#DejaVuSans-74" x="124.756"/><use xlink:href="#DejaVuSans-65" x="163.965"/></g></g><g id="matplotlib.axis_6"><g id="ytick_13"><use xlink:href="#me56e59ad16" id="line2d_53" x="201.96" y="814.537" style="stroke:#000;stroke-width:.8"/><use xlink:href="#DejaVuSans-30" id="text_54" transform="matrix(.1 0 0 -.1 188.597 818.336)"/></g><g id="ytick_14"><use xlink:href="#me56e59ad16" id="line2d_54" x="201.96" y="768.268" style="stroke:#000;stroke-width:.8"/><g id="text_55" transform="matrix(.1 0 0 -.1 175.873 772.067)"><use xlink:href="#DejaVuSans-35"/><use xlink:href="#DejaVuSans-30" x="63.623"/><use xlink:href="#DejaVuSans-30" x="127.246"/></g></g><g id="ytick_15"><use xlink:href="#me56e59ad16" id="line2d_55" x="201.96" y="721.998" style="stroke:#000;stroke-width:.8"/><g id="text_56" transform="matrix(.1 0 0 -.1 169.51 725.797)"><use xlink:href="#DejaVuSans-31"/><use xlink:href="#DejaVuSans-30" x="63.623"/><use xlink:href="#DejaVuSans-30" x="127.246"/><use xlink:href="#DejaVuSans-30" x="190.869"/></g></g><g id="ytick_16"><use xlink:href="#me56e59ad16" id="line2d_56" x="201.96" y="675.729" style="stroke:#000;stroke-width:.8"/><g id="text_57" transform="matrix(.1 0 0 -.1 169.51 679.528)"><use xlink:href="#DejaVuSans-31"/><use xlink:href="#DejaVuSans-35" x="63.623"/><use xlink:href="#DejaVuSans-30" x="127.246"/><use xlink:href="#DejaVuSans-30" x="190.869"/></g></g><g id="ytick_17"><use xlink:href="#me56e59ad16" id="line2d_57" x="201.96" y="629.459" style="stroke:#000;stroke-width:.8"/><g id="text_58" transform="matrix(.1 0 0 -.1 169.51 633.258)"><use xlink:href="#DejaVuSans-32"/><use xlink:href="#DejaVuSans-30" x="63.623"/><use xlink:href="#DejaVuSans-30" x="127.246"/><use xlink:href="#DejaVuSans-30" x="190.869"/></g></g><g id="text_59" transform="matrix(0 -.1 -.1 0 163.43 732.356)"><defs><path id="DejaVuSans-6f" d="M1959 3097q-462 0-731-361t-269-989q0-628 267-989 268-361 733-361 460 0 728 362 269 363 269 988 0 622-269 986-268 364-728 364zm0 487q750 0 1178-488 429-487 429-1349 0-859-429-1349Q2709-91 1959-91q-753 0-1180 489-426 490-426 1349 0 862 426 1349 427 488 1180 488z" transform="scale(.01563)"/></defs><use xlink:href="#DejaVuSans-73"/><use xlink:href="#DejaVuSans-63" x="52.1"/><use xlink:href="#DejaVuSans-72" x="107.08"/><use xlink:href="#DejaVuSans-6f" x="145.943"/><use xlink:href="#DejaVuSans-6c" x="207.125"/><use xlink:href="#DejaVuSans-6c" x="234.908"/></g></g><path id="line2d_58" d="m258.876 739.673 4.763 51.822 4.763-16.935 4.763 39.977h47.628l4.763-64.962 4.763 49.693 4.763-47.472 4.762 5.182 4.763-4.905 4.763 13.048 4.763 6.94 4.763-29.52 4.763 29.613 4.762-2.036 4.763-11.382 4.763-52.377 4.763 44.789 4.763 63.39h42.865l4.763-47.473 4.763 2.128 4.763 25.17 4.763 2.962 4.763-37.941 4.762-71.718 4.763 114.008 4.763-106.697 4.763 18.137 4.763-20.08 4.763 121.503 4.763-157.964 4.762 92.261 4.763-4.441 4.763 63.111 4.763 7.033h38.103l4.763-78.75 4.762 35.905 4.763-11.475 4.763-2.406 4.763 31.278 4.763-77.918 4.763 103.366 4.762-73.476 4.763 59.225 4.763-59.595 4.763-6.478 4.763-4.534 4.763 37.848 4.763 47.01h42.865l4.763-52.377 4.763 4.627 4.763-27.114 4.763 57.93 4.762-17.213 4.763-.462 4.763 34.61 4.763-92.17 4.763 81.712 4.763-28.687 4.762-27.114 4.763 15.824 4.763-70.7 4.763 63.205 4.763 51.637 4.763 6.292h42.865l4.763-44.14 4.763 3.886 4.763 4.812 4.763-35.72 4.763-23.32 4.762 34.147 4.763-44.79 4.763 64.686 4.763 8.698 4.763-39.699 4.763-16.472 4.762 27.3 4.763 10.734 4.763-12.308 4.763-62.927 4.763 92.262 4.763 32.851h33.34l4.762-136.125 4.763 81.342 4.763-47.565 4.763 52.747 4.763-12.122 4.763 27.576 4.762 11.29 4.763 21.099 4.763-13.048 4.763 14.806 4.763-48.768 4.763-141.862 4.763 138.9 4.762-50.618 4.763 65.98 4.763 36.368h38.103l4.763-124.095 4.763 62.094 4.762-63.39 4.763 41.921 4.763-18.693 4.763 62.186 4.763-15.176 4.763 35.165 4.762-13.51 4.763 22.579 4.763-13.14 4.763 24.06 4.763-17.398 4.763 17.397h47.628l4.763-31.185 4.763-75.605 9.526 64.037 4.762-19.988 4.763 7.958 4.763 9.532 4.763 45.251 4.763-38.866 4.763-65.518 4.762 57.19 4.763 4.071 4.763 9.532 4.763 33.591h47.628l4.763-49.416 4.763 20.637 4.763-27.022 4.763 42.29 4.763-23.134 4.762 6.57 4.763 30.075 4.763-32.11 4.763-45.067 4.763-20.174 4.763 74.587 4.763-2.684 4.762-6.2 4.763 28.04 4.763 3.608h33.34l4.763-7.218 4.763 7.218 4.763-23.782 4.762 10.734 4.763 11.383 4.763-2.221 4.763-71.348 4.763 31 4.763 44.234 4.762-42.012 4.763 21.654 4.763 12.77 4.763-22.302h0" clip-path="url(#pf3adc96024)" style="fill:none;stroke:#1f77b4;stroke-width:1.5;stroke-linecap:square"/><path id="patch_14" d="M201.96 824.069V614.375" style="fill:none;stroke:#000;stroke-width:.8;stroke-linejoin:miter;stroke-linecap:square"/><path id="patch_15" d="M1454.112 824.069V614.375" style="fill:none;stroke:#000;stroke-width:.8;stroke-linejoin:miter;stroke-linecap:square"/><path id="patch_16" d="M201.96 824.069h1252.152" style="fill:none;stroke:#000;stroke-width:.8;stroke-linejoin:miter;stroke-linecap:square"/><path id="patch_17" d="M201.96 614.375h1252.152" style="fill:none;stroke:#000;stroke-width:.8;stroke-linejoin:miter;stroke-linecap:square"/></g></g><defs><clipPath id="p93b8ae68c5"><path d="M201.96 111.11h1252.152v209.694H201.96z"/></clipPath><clipPath id="pfd094ad192"><path d="M201.96 362.743h1252.152v209.694H201.96z"/></clipPath><clipPath id="pf3adc96024"><path d="M201.96 614.375h1252.152v209.694H201.96z"/></clipPath></defs></svg>