<svg xmlns="http://www.w3.org/2000/svg" xmlns:xlink="http://www.w3.org/1999/xlink" width="960" height="384" viewBox="0 0 720 288"><defs><style>*{stroke-linejoin:round;stroke-linecap:butt}</style></defs><g id="figure_1"><path id="patch_1" d="M0 288h720V0H0z" style="fill:#fff"/><g id="axes_1"><path id="patch_2" d="M90 256.32h558V34.56H90z" style="fill:#fff"/><g id="matplotlib.axis_1"><g id="xtick_1"><g id="line2d_1"><defs><path id="m498ca65132" d="M0 0v3.5" style="stroke:#000;stroke-width:.8"/></defs><use xlink:href="#m498ca65132" x="115.364" y="256.32" style="stroke:#000;stroke-width:.8"/></g><g id="text_1" transform="matrix(.1 0 0 -.1 112.182 270.918)"><defs><path id="DejaVuSans-30" d="M2034 4250q-487 0-733-480-245-479-245-1442 0-959 245-1439 246-480 733-480 491 0 736 480 246 480 246 1439 0 963-246 1442-245 480-736 480zm0 500q785 0 1199-621 414-620 414-1801 0-1178-414-1799Q2819-91 2034-91q-784 0-1198 620-414 621-414 1799 0 1181 414 1801 414 621 1198 621z" transform="scale(.01563)"/></defs><use xlink:href="#DejaVuSans-30"/></g></g><g id="xtick_2"><use xlink:href="#m498ca65132" id="line2d_2" x="218.889" y="256.32" style="stroke:#000;stroke-width:.8"/><g id="text_2" transform="matrix(.1 0 0 -.1 212.526 270.918)"><defs><path id="DejaVuSans-31" d="M794 531h1031v3560L703 3866v575l1116 225h631V531h1031V0H794v531z" transform="scale(.01563)"/></defs><use xlink:href="#DejaVuSans-31"/><use xlink:href="#DejaVuSans-30" x="63.623"/></g></g><g id="xtick_3"><use xlink:href="#m498ca65132" id="line2d_3" x="322.414" y="256.32" style="stroke:#000;stroke-width:.8"/><g id="text_3" transform="matrix(.1 0 0 -.1 316.051 270.918)"><defs><path id="DejaVuSans-32" d="M1228 531h2203V0H469v531q359 372 979 998 621 627 780 809 303 340 423 576 121 236 121 464 0 372-261 606-261 235-680 235-297 0-627-103-329-103-704-313v638q381 153 712 231 332 78 607 78 725 0 1156-363 431-362 431-968 0-288-108-546-107-257-392-607-78-91-497-524-418-433-1181-1211z" transform="scale(.01563)"/></defs><use xlink:href="#DejaVuSans-32"/><use xlink:href="#DejaVuSans-30" x="63.623"/></g></g><g id="xtick_4"><use xlink:href="#m498ca65132" id="line2d_4" x="425.939" y="256.32" style="stroke:#000;stroke-width:.8"/><g id="text_4" transform="matrix(.1 0 0 -.1 419.576 270.918)"><defs><path id="DejaVuSans-33" d="M2597 2516q453-97 707-404 255-306 255-756 0-690-475-1069Q2609-91 1734-91q-293 0-604 58T488 141v609q262-153 574-231 313-78 654-78 593 0 904 234t311 681q0 413-289 645-289 233-804 233h-544v519h569q465 0 712 186t247 536q0 359-255 551-254 193-729 193-260 0-557-57-297-56-653-174v562q360 100 674 150t592 50q719 0 1137-327 419-326 419-882 0-388-222-655t-631-370z" transform="scale(.01563)"/></defs><use xlink:href="#DejaVuSans-33"/><use xlink:href="#DejaVuSans-30" x="63.623"/></g></g><g id="xtick_5"><use xlink:href="#m498ca65132" id="line2d_5" x="529.464" y="256.32" style="stroke:#000;stroke-width:.8"/><g id="text_5" transform="matrix(.1 0 0 -.1 523.101 270.918)"><defs><path id="DejaVuSans-34" d="M2419 4116 825 1625h1594v2491zm-166 550h794V1625h666v-525h-666V0h-628v1100H313v609l1940 2957z" transform="scale(.01563)"/></defs><use xlink:href="#DejaVuSans-34"/><use xlink:href="#DejaVuSans-30" x="63.623"/></g></g><g id="xtick_6"><use xlink:href="#m498ca65132" id="line2d_6" x="632.989" y="256.32" style="stroke:#000;stroke-width:.8"/><g id="text_6" transform="matrix(.1 0 0 -.1 626.626 270.918)"><defs><path id="DejaVuSans-35" d="M691 4666h2478v-532H1269V2991q137 47 274 70 138 23 276 23 781 0 1237-428 457-428 457-1159 0-753-469-1171Q2575-91 1722-91q-294 0-599 50Q819 9 494 109v635q281-153 581-228t634-75q541 0 856 284 316 284 316 772 0 487-316 771-315 285-856 285-253 0-505-56-251-56-513-175v2344z" transform="scale(.01563)"/></defs><use xlink:href="#DejaVuSans-35"/><use xlink:href="#DejaVuSans-30" x="63.623"/></g></g><g id="text_7" transform="matrix(.1 0 0 -.1 347.791 284.597)"><defs><path id="DejaVuSans-49" d="M628 4666h631V0H628v4666z" transform="scale(.01563)"/><path id="DejaVuSans-74" d="M1172 4494v-994h1184v-447H1172V1153q0-428 117-550t477-122h590V0h-590q-666 0-919 248-253 249-253 905v1900H172v447h422v994h578z" transform="scale(.01563)"/><path id="DejaVuSans-65" d="M3597 1894v-281H953q38-594 358-905t892-311q331 0 642 81t618 244V178Q3153 47 2828-22t-659-69q-838 0-1327 487-489 488-489 1320 0 859 464 1363 464 505 1252 505 706 0 1117-455 411-454 411-1235zm-575 169q-6 471-264 752-258 282-683 282-481 0-770-272t-333-766l2050 4z" transform="scale(.01563)"/><path id="DejaVuSans-72" d="M2631 2963q-97 56-211 82-114 27-251 27-488 0-749-317t-261-911V0H581v3500h578v-544q182 319 472 473 291 155 707 155 59 0 131-8 72-7 159-23l3-590z" transform="scale(.01563)"/><path id="DejaVuSans-61" d="M2194 1759q-697 0-966-159t-269-544q0-306 202-486 202-179 548-179 479 0 768 339t289 901v128h-572zm1147 238V0h-575v531q-197-318-491-470T1556-91q-537 0-855 302-317 302-317 808 0 590 395 890 396 300 1180 300h807v57q0 397-261 614t-733 217q-300 0-585-72-284-72-546-216v532q315 122 612 182 297 61 578 61 760 0 1135-394 375-393 375-1193z" transform="scale(.01563)"/><path id="DejaVuSans-69" d="M603 3500h575V0H603v3500zm0 1363h575v-729H603v729z" transform="scale(.01563)"/><path id="DejaVuSans-6f" d="M1959 3097q-462 0-731-361t-269-989q0-628 267-989 268-361 733-361 460 0 728 362 269 363 269 988 0 622-269 986-268 364-728 364zm0 487q750 0 1178-488 429-487 429-1349 0-859-429-1349Q2709-91 1959-91q-753 0-1180 489-426 490-426 1349 0 862 426 1349 427 488 1180 488z" transform="scale(.01563)"/><path id="DejaVuSans-6e" d="M3513 2113V0h-575v2094q0 497-194 743-194 247-581 247-466 0-735-297-269-296-269-809V0H581v3500h578v-544q207 316 486 472 280 156 646 156 603 0 912-373 310-373 310-1098z" transform="scale(.01563)"/></defs><use xlink:href="#DejaVuSans-49"/><use xlink:href="#DejaVuSans-74" x="29.492"/><use xlink:href="#DejaVuSans-65" x="68.701"/><use xlink:href="#DejaVuSans-72" x="130.225"/><use xlink:href="#DejaVuSans-61" x="171.338"/><use xlink:href="#DejaVuSans-74" x="232.617"/><use xlink:href="#DejaVuSans-69" x="271.826"/><use xlink:href="#DejaVuSans-6f" x="299.609"/><use xlink:href="#DejaVuSans-6e" x="360.791"/></g></g><g id="matplotlib.axis_2"><g id="ytick_1"><g id="line2d_7"><defs><path id="m67511150e8" d="M0 0h-3.5" style="stroke:#000;stroke-width:.8"/></defs><use xlink:href="#m67511150e8" x="90" y="250.029" style="stroke:#000;stroke-width:.8"/></g><g id="text_8" transform="matrix(.1 0 0 -.1 58.717 253.828)"><defs><path id="DejaVuSans-2212" d="M678 2272h4006v-531H678v531z" transform="scale(.01563)"/><path id="DejaVuSans-2e" d="M684 794h660V0H684v794z" transform="scale(.01563)"/></defs><use xlink:href="#DejaVuSans-2212"/><use xlink:href="#DejaVuSans-32" x="83.789"/><use xlink:href="#DejaVuSans-2e" x="147.412"/><use xlink:href="#DejaVuSans-30" x="179.199"/></g></g><g id="ytick_2"><use xlink:href="#m67511150e8" id="line2d_8" x="90" y="222.967" style="stroke:#000;stroke-width:.8"/><g id="text_9" transform="matrix(.1 0 0 -.1 58.717 226.767)"><use xlink:href="#DejaVuSans-2212"/><use xlink:href="#DejaVuSans-31" x="83.789"/><use xlink:href="#DejaVuSans-2e" x="147.412"/><use xlink:href="#DejaVuSans-35" x="179.199"/></g></g><g id="ytick_3"><use xlink:href="#m67511150e8" id="line2d_9" x="90" y="195.906" style="stroke:#000;stroke-width:.8"/><g id="text_10" transform="matrix(.1 0 0 -.1 58.717 199.706)"><use xlink:href="#DejaVuSans-2212"/><use xlink:href="#DejaVuSans-31" x="83.789"/><use xlink:href="#DejaVuSans-2e" x="147.412"/><use xlink:href="#DejaVuSans-30" x="179.199"/></g></g><g id="ytick_4"><use xlink:href="#m67511150e8" id="line2d_10" x="90" y="168.845" style="stroke:#000;stroke-width:.8"/><g id="text_11" transform="matrix(.1 0 0 -.1 58.717 172.644)"><use xlink:href="#DejaVuSans-2212"/><use xlink:href="#DejaVuSans-30" x="83.789"/><use xlink:href="#DejaVuSans-2e" x="147.412"/><use xlink:href="#DejaVuSans-35" x="179.199"/></g></g><g id="ytick_5"><use xlink:href="#m67511150e8" id="line2d_11" x="90" y="141.784" style="stroke:#000;stroke-width:.8"/><g id="text_12" transform="matrix(.1 0 0 -.1 67.097 145.583)"><use xlink:href="#DejaVuSans-30"/><use xlink:href="#DejaVuSans-2e" x="63.623"/><use xlink:href="#DejaVuSans-30" x="95.41"/></g></g><g id="ytick_6"><use xlink:href="#m67511150e8" id="line2d_12" x="90" y="114.723" style="stroke:#000;stroke-width:.8"/><g id="text_13" transform="matrix(.1 0 0 -.1 67.097 118.522)"><use xlink:href="#DejaVuSans-30"/><use xlink:href="#DejaVuSans-2e" x="63.623"/><use xlink:href="#DejaVuSans-35" x="95.41"/></g></g><g id="ytick_7"><use xlink:href="#m67511150e8" id="line2d_13" x="90" y="87.662" style="stroke:#000;stroke-width:.8"/><g id="text_14" transform="matrix(.1 0 0 -.1 67.097 91.461)"><use xlink:href="#DejaVuSans-31"/><use xlink:href="#DejaVuSans-2e" x="63.623"/><use xlink:href="#DejaVuSans-30" x="95.41"/></g></g><g id="ytick_8"><use xlink:href="#m67511150e8" id="line2d_14" x="90" y="60.601" style="stroke:#000;stroke-width:.8"/><g id="text_15" transform="matrix(.1 0 0 -.1 67.097 64.4)"><use xlink:href="#DejaVuSans-31"/><use xlink:href="#DejaVuSans-2e" x="63.623"/><use xlink:href="#DejaVuSans-35" x="95.41"/></g></g><g id="text_16" transform="matrix(0 -.1 -.1 0 52.638 157.942)"><defs><path id="DejaVuSans-53" d="M3425 4513v-616q-359 172-678 256-319 85-616 85-515 0-795-200t-280-569q0-310 186-468 186-157 705-254l381-78q706-135 1042-474t336-907q0-679-455-1029Q2797-91 1919-91q-331 0-705 75-373 75-773 222v650q384-215 753-325 369-109 725-109 540 0 834 212 294 213 294 607 0 343-211 537t-692 291l-385 75q-706 140-1022 440-315 300-315 835 0 619 436 975t1201 356q329 0 669-60 341-59 697-177z" transform="scale(.01563)"/><path id="DejaVuSans-64" d="M2906 2969v1894h575V0h-575v525q-181-312-458-464-276-152-664-152-634 0-1033 506-398 507-398 1332t398 1331q399 506 1033 506 388 0 664-152 277-151 458-463zM947 1747q0-634 261-995t717-361q456 0 718 361 263 361 263 995t-263 995q-262 361-718 361t-717-361q-261-361-261-995z" transform="scale(.01563)"/></defs><use xlink:href="#DejaVuSans-53"/><use xlink:href="#DejaVuSans-65" x="63.477"/><use xlink:href="#DejaVuSans-65" x="125"/><use xlink:href="#DejaVuSans-64" x="186.523"/></g></g><g id="line2d_15"><path d="m115.364 141.784 10.352 104.456 10.353-201.6 10.352 27.236 10.353 84.066 10.352 86.594L177.48 58.683l10.352 59.962 10.353 117.702 10.352-155.328 10.353 96.997 10.352 43.969 10.353-94.59 10.352 115.02L260.3 59.135l10.352 60.894 10.353 117.466 10.352-160.514 10.353 91.668 10.352 64.255L322.414 92.83l10.352 109.13 10.353-22.624 10.352 40.852 10.353-87.524 10.352 112.04L384.53 50.53l10.352 41.848 10.353 108.762 10.352-19.996 10.353 36.472 10.352-77.625 10.353 106.19 10.352-201.312 10.353 27.829 10.352 85.354 10.353 83.298 10.352-178.276 10.353 68.697 10.352 112.617 10.353-192.66 10.352 44.661 10.353 111.777 10.352-43.344 10.353 71.612 10.352-155.718 10.353 96.618 10.352 45.555 10.353-98.188 10.352 116.147" clip-path="url(#pb1d547c422)" style="fill:none;stroke:#000;stroke-width:1.5;stroke-linecap:square"/><defs><path id="m34c8411757" d="M0 3a3 3 0 1 0 0-6 3 3 0 0 0 0 6z" style="stroke:#000"/></defs><g clip-path="url(#pb1d547c422)"><use xlink:href="#m34c8411757" x="115.364" y="141.784" style="stroke:#000"/><use xlink:href="#m34c8411757" x="125.716" y="246.24" style="stroke:#000"/><use xlink:href="#m34c8411757" x="136.069" y="44.64" style="stroke:#000"/><use xlink:href="#m34c8411757" x="146.421" y="71.876" style="stroke:#000"/><use xlink:href="#m34c8411757" x="156.774" y="155.942" style="stroke:#000"/><use xlink:href="#m34c8411757" x="167.126" y="242.536" style="stroke:#000"/><use xlink:href="#m34c8411757" x="177.479" y="58.683" style="stroke:#000"/><use xlink:href="#m34c8411757" x="187.831" y="118.645" style="stroke:#000"/><use xlink:href="#m34c8411757" x="198.184" y="236.347" style="stroke:#000"/><use xlink:href="#m34c8411757" x="208.536" y="81.019" style="stroke:#000"/><use xlink:href="#m34c8411757" x="218.889" y="178.016" style="stroke:#000"/><use xlink:href="#m34c8411757" x="229.241" y="221.985" style="stroke:#000"/><use xlink:href="#m34c8411757" x="239.594" y="127.395" style="stroke:#000"/><use xlink:href="#m34c8411757" x="249.946" y="242.415" style="stroke:#000"/><use xlink:href="#m34c8411757" x="260.299" y="59.135" style="stroke:#000"/><use xlink:href="#m34c8411757" x="270.651" y="120.029" style="stroke:#000"/><use xlink:href="#m34c8411757" x="281.004" y="237.495" style="stroke:#000"/><use xlink:href="#m34c8411757" x="291.356" y="76.981" style="stroke:#000"/><use xlink:href="#m34c8411757" x="301.709" y="168.649" style="stroke:#000"/><use xlink:href="#m34c8411757" x="312.061" y="232.904" style="stroke:#000"/><use xlink:href="#m34c8411757" x="322.414" y="92.829" style="stroke:#000"/><use xlink:href="#m34c8411757" x="332.766" y="201.959" style="stroke:#000"/><use xlink:href="#m34c8411757" x="343.119" y="179.335" style="stroke:#000"/><use xlink:href="#m34c8411757" x="353.471" y="220.187" style="stroke:#000"/><use xlink:href="#m34c8411757" x="363.824" y="132.663" style="stroke:#000"/><use xlink:href="#m34c8411757" x="374.176" y="244.703" style="stroke:#000"/><use xlink:href="#m34c8411757" x="384.529" y="50.53" style="stroke:#000"/><use xlink:href="#m34c8411757" x="394.881" y="92.378" style="stroke:#000"/><use xlink:href="#m34c8411757" x="405.234" y="201.14" style="stroke:#000"/><use xlink:href="#m34c8411757" x="415.586" y="181.144" style="stroke:#000"/><use xlink:href="#m34c8411757" x="425.939" y="217.616" style="stroke:#000"/><use xlink:href="#m34c8411757" x="436.291" y="139.991" style="stroke:#000"/><use xlink:href="#m34c8411757" x="446.644" y="246.181" style="stroke:#000"/><use xlink:href="#m34c8411757" x="456.996" y="44.869" style="stroke:#000"/><use xlink:href="#m34c8411757" x="467.349" y="72.698" style="stroke:#000"/><use xlink:href="#m34c8411757" x="477.701" y="158.052" style="stroke:#000"/><use xlink:href="#m34c8411757" x="488.054" y="241.35" style="stroke:#000"/><use xlink:href="#m34c8411757" x="498.406" y="63.074" style="stroke:#000"/><use xlink:href="#m34c8411757" x="508.759" y="131.771" style="stroke:#000"/><use xlink:href="#m34c8411757" x="519.111" y="244.388" style="stroke:#000"/><use xlink:href="#m34c8411757" x="529.464" y="51.727" style="stroke:#000"/><use xlink:href="#m34c8411757" x="539.816" y="96.389" style="stroke:#000"/><use xlink:href="#m34c8411757" x="550.169" y="208.166" style="stroke:#000"/><use xlink:href="#m34c8411757" x="560.521" y="164.822" style="stroke:#000"/><use xlink:href="#m34c8411757" x="570.874" y="236.434" style="stroke:#000"/><use xlink:href="#m34c8411757" x="581.226" y="80.716" style="stroke:#000"/><use xlink:href="#m34c8411757" x="591.579" y="177.334" style="stroke:#000"/><use xlink:href="#m34c8411757" x="601.931" y="222.889" style="stroke:#000"/><use xlink:href="#m34c8411757" x="612.284" y="124.701" style="stroke:#000"/><use xlink:href="#m34c8411757" x="622.636" y="240.848" style="stroke:#000"/></g></g><path id="patch_3" d="M90 256.32V34.56" style="fill:none;stroke:#000;stroke-width:.8;stroke-linejoin:miter;stroke-linecap:square"/><path id="patch_4" d="M648 256.32V34.56" style="fill:none;stroke:#000;stroke-width:.8;stroke-linejoin:miter;stroke-linecap:square"/><path id="patch_5" d="M90 256.32h558" style="fill:none;stroke:#000;stroke-width:.8;stroke-linejoin:miter;stroke-linecap:square"/><path id="patch_6" d="M90 34.56h558" style="fill:none;stroke:#000;stroke-width:.8;stroke-linejoin:miter;stroke-linecap:square"/></g></g><defs><clipPath id="pb1d547c422"><path d="M90 34.56h558v221.76H90z"/></clipPath></defs></svg>